<svg width="512" height="512" viewBox="0 0 512 512" fill="none" xmlns="http://www.w3.org/2000/svg">
<path d="M453.004 35.117C387.69 81.727 263.249 76.135 239.445 160.543C184.41 101.41 98.625 83.031 21.771 63.209C28.303 202.312 93.151 210.646 214.211 257.756C237.921 283.542 243.997 307.686 233.465 340.461C279.868 345.561 304.969 355.929 340.219 368.203C339.511 296.533 315.079 259.275 264.701 193.168C275.759 197.401 309.68 230.188 321.279 251.775C430.698 209.354 468.919 139.701 453.004 35.117V35.117ZM180.178 353.9C119.288 353.66 66.144 373.39 21.752 428.121C188.827 379.281 313.755 414.911 493.645 436.016C374.709 397.264 269.171 354.253 180.178 353.9ZM278.221 431.744C178.941 431.999 71.881 450.482 21.355 494.883C189.357 468.273 378.156 466.475 492.155 489.916C493.257 454.579 390.737 431.456 278.221 431.744V431.744Z" fill="white"/>
</svg>
